<svg width="200" height="200" fill="none" xmlns="http://www.w3.org/2000/svg"><path d="M199.131 100.479A99.52 99.52 0 012.004 119.828 99.52 99.52 0 0199.52.869a99.48 99.48 0 0199.61 99.61z" fill="url(#paint0_linear)"/><path d="M159.2 105.831a42.207 42.207 0 00-9.303-25.802 132.163 132.163 0 01-15.182-23.476A39.14 39.14 0 0099.5 34.5a39.142 39.142 0 00-35.214 22.053A127.258 127.258 0 0149.103 80.03a42.213 42.213 0 00-9.303 25.802c0 18.606 12.155 33.657 31.99 33.306a36.468 36.468 0 0030.496-18.211l10.707 5.661a7.542 7.542 0 006.67-.483 6.356 6.356 0 002.502-6.187l-2.589-15.051 10.926-10.62a6.361 6.361 0 001.58-6.494 6.104 6.104 0 00-5.091-4.388l-15.095-2.194-6.757-13.69a6.277 6.277 0 00-8.963-2.57 6.274 6.274 0 00-2.315 2.57l-6.757 13.69-15.095 2.194a6.23 6.23 0 00-5.09 4.388 6.363 6.363 0 001.58 6.495l12.9 12.55a5.968 5.968 0 009.873-5.749 9.479 9.479 0 00-2.764-3.686l-3.993-3.861L90 92.71a9.433 9.433 0 004.388-1.36 9.696 9.696 0 002.633-3.774l2.457-4.959 2.457 4.959a9.221 9.221 0 002.589 3.774 9.438 9.438 0 004.389 1.36l5.485.79-3.994 3.861a7.07 7.07 0 00-2.676 8.25l.965 5.485-4.915-2.589a7.821 7.821 0 00-9.322 1.517c-.78.82-1.372 1.8-1.736 2.871a23.036 23.036 0 01-23.081 13.779c-11.672-1.009-17.113-10.97-17.113-20.449a28.786 28.786 0 016.801-19.088 133.397 133.397 0 0016.06-24.837 26.68 26.68 0 0148.05 0 133.364 133.364 0 0016.061 24.837 28.525 28.525 0 016.977 19.044c0 14.481-10.62 24.705-28.304 27.294-6.143.878-24.88 3.116-24.88 21.941v14.173a6.318 6.318 0 1012.594 0v-13.647c0-3.203.482-8.293 10.575-10.048a80.116 80.116 0 0021.677-6.056 37.21 37.21 0 0021.151-34.095l-.088.087z" fill="#fff"/><defs><linearGradient id="paint0_linear" x1="-.001" y1="100.479" x2="198.999" y2="100.479" gradientUnits="userSpaceOnUse"><stop stop-color="#80C342"/><stop offset="1" stop-color="#00A99D"/></linearGradient></defs></svg>