<svg xmlns="http://www.w3.org/2000/svg" xmlns:xlink="http://www.w3.org/1999/xlink" viewBox="0 0 879.32 879.32"><defs><style>.cls-1{fill:url(#linear-gradient);}.cls-2{fill:url(#linear-gradient-2);}.cls-3{fill:#fff;}</style><linearGradient id="linear-gradient" x1="41.84" y1="694.9" x2="782.02" y2="220" gradientUnits="userSpaceOnUse"><stop offset="0" stop-color="#fff21f"/><stop offset="0.2" stop-color="#fccd00"/><stop offset="0.26" stop-color="#f8ba0f"/><stop offset="0.36" stop-color="#f39e26"/><stop offset="0.42" stop-color="#f1942e"/><stop offset="0.53" stop-color="#f08f2e"/><stop offset="0.57" stop-color="#ef8b2e"/><stop offset="0.71" stop-color="#ef8a2e"/><stop offset="0.78" stop-color="#ed7d2e"/><stop offset="0.82" stop-color="#eb722e"/><stop offset="0.9" stop-color="#ea652d"/><stop offset="0.93" stop-color="#e95d2d"/><stop offset="0.97" stop-color="#e7462c"/><stop offset="1" stop-color="#e5352b"/></linearGradient><linearGradient id="linear-gradient-2" x1="107.63" y1="797.44" x2="847.81" y2="322.54" xlink:href="#linear-gradient"/></defs><title>Asset 3</title><g id="Layer_2" data-name="Layer 2"><g id="Layer_2-2" data-name="Layer 2"><path class="cls-1" d="M439.66,0C196.84,0,0,196.84,0,439.66S196.84,879.32,439.66,879.32,879.32,682.48,879.32,439.66,682.48,0,439.66,0Zm191.2,443.33c15.87,8.47,28.28,19.36,36.9,32.35,8.74,13.17,13.16,28.42,13.16,45.35a109.68,109.68,0,0,1-2.44,23.09c-2.23,23.39-11.92,45.83-28.9,66.85-19.26,23.85-47.88,43.83-85.06,59.4a299.48,299.48,0,0,1-116.28,23.35c-11.65,0-35.95-1-74.28-3-17.79-.73-36.8-1.1-56.42-1.1-29.71,0-56.39,1.89-79.28,5.61l-9.36,1.52,4.47-13-2.52.41,11-32.08,3.86-.18c29.62-1.38,50.79-7.08,62.92-16.94s24-32.85,35.18-68.16l65.47-209.89c.69-2.35,1.28-4.52,1.78-6.53-.08-1.14-.63-2.77-3.28-4.78s-6.14-3-10.5-3a56.09,56.09,0,0,0-8,.75L393.42,315h.1l1.84-12.59c33.21-1.9,69.53-6.74,108-14.36L513.73,286l-4.06,9.8-1.45,3.5,3.57-.7-4.06,9.8C497.55,333,490.06,353,485.45,367.85l-17.84,60.42c30-.79,55.49-5.41,76.14-13.81a115.25,115.25,0,0,0,29.06-16.77c19.1-15.38,30.77-32.52,35.35-52q.27-3.47.27-7c0-18.59-8.52-33.23-26-44.73a76.07,76.07,0,0,0-9.33-5.21c-14.35-6.8-33.12-10.88-56-12.19h0q-8-.45-16.69-.46h-.18c-5.57,0-11.73.25-18.55.89-32.68,3.07-80.42,14.36-150.47,39.29-15.22,5.49-43.79,13-74.34,2.92a80,80,0,0,1-17.59-7.89c-23.6-16.15-39.75-42.23-43.48-65.84s0-62.94,0-62.94c.31.55.62,1.08.93,1.61.47-8.44,1-14.21,1-14.21,10.19,18,20.75,30.49,32,39.84a124.8,124.8,0,0,0,11.18,8.29,140.51,140.51,0,0,0,29.67,14.81c34.78,12.84,73,11.41,78.06,11.18a220.69,220.69,0,0,0,45.34-6.83,682.65,682.65,0,0,1,122.56-7.78c58.19,1.59,90.4,5.52,124.31,26.49,29.32,18.12,44.18,40.76,44.18,67.3a88.32,88.32,0,0,1-2.24,19.88c-1.77,22-11.6,42.26-29.29,60.41-11.5,11.8-26.59,22-45.11,30.62A129.57,129.57,0,0,1,630.86,443.33Z"/><path class="cls-2" d="M553,610.53c18.86-18.56,30.75-38.89,35.52-60.67.29-3.2.45-6.43.45-9.68,0-14.61-4.39-26.79-13.43-37.26s-21.25-18-36.16-22.25-43.92-6.5-86-6.64L432.18,542.6c-11.48,37.69-22.72,67.18-33.39,87.61a114,114,0,0,1-8.09,13.15c18.49,3,35,4.51,49.23,4.51C489.78,647.87,527.82,635.31,553,610.53Z"/><path class="cls-3" d="M682.74,343.11A88.32,88.32,0,0,0,685,323.23c0-26.54-14.86-49.18-44.18-67.3-33.91-21-66.12-24.9-124.31-26.49a682.65,682.65,0,0,0-122.56,7.78,220.69,220.69,0,0,1-45.34,6.83c-5,.23-43.28,1.66-78.06-11.18a140.51,140.51,0,0,1-29.67-14.81,124.8,124.8,0,0,1-11.18-8.29c-11.28-9.35-21.84-21.82-32-39.84,0,0-.54,5.77-1,14.21-.31-.53-.62-1.06-.93-1.61,0,0-3.73,39.34,0,62.94s19.88,49.69,43.48,65.84a80,80,0,0,0,17.59,7.89c30.55,10,59.12,2.57,74.34-2.92,70.05-24.93,117.79-36.22,150.47-39.29,6.82-.64,13-.92,18.55-.89h.18q8.69,0,16.69.46h0c22.92,1.31,41.69,5.39,56,12.19a76.07,76.07,0,0,1,9.33,5.21c17.53,11.5,26,26.14,26,44.73q0,3.57-.27,7c-4.58,19.45-16.25,36.59-35.35,52a115.25,115.25,0,0,1-29.06,16.77c-20.65,8.4-46.12,13-76.14,13.81l17.84-60.42c4.61-14.89,12.1-34.89,22.28-59.44l4.06-9.8-3.57.7,1.45-3.5,4.06-9.8-10.41,2.06c-38.43,7.62-74.75,12.46-108,14.36L393.52,315h-.1l-4.14,28.31a56.09,56.09,0,0,1,8-.75c4.36,0,7.8,1,10.5,3s3.2,3.64,3.28,4.78c-.5,2-1.09,4.18-1.78,6.53L343.81,566.83c-11.14,35.31-23,58.24-35.18,68.16s-33.3,15.56-62.92,16.94l-3.86.18-11,32.08,2.52-.41-4.47,13,9.36-1.52c22.89-3.72,49.57-5.61,79.28-5.61,19.62,0,38.63.37,56.42,1.1,38.33,2,62.63,3,74.28,3a299.48,299.48,0,0,0,116.28-23.35c37.18-15.57,65.8-35.55,85.06-59.4,17-21,26.67-43.46,28.9-66.85A109.68,109.68,0,0,0,680.92,521c0-16.93-4.42-32.18-13.16-45.35-8.62-13-21-23.88-36.9-32.35a129.57,129.57,0,0,0-22.52-9.19c18.52-8.58,33.61-18.82,45.11-30.62C671.14,385.37,681,365.08,682.74,343.11ZM398.79,630.21c10.67-20.43,21.91-49.92,33.39-87.61L453.4,474c42.06.14,71,2.37,86,6.64s27.07,11.73,36.16,22.25S589,525.57,589,540.18c0,3.25-.16,6.48-.45,9.68C583.75,571.64,571.86,592,553,610.53c-25.18,24.78-63.22,37.34-113.07,37.34-14.23,0-30.74-1.52-49.23-4.51A114,114,0,0,0,398.79,630.21Z"/></g></g></svg>