<svg xmlns="http://www.w3.org/2000/svg" xmlns:xlink="http://www.w3.org/1999/xlink" viewBox="0 0 603 634.17"><defs><style>.cls-1{fill:url(#linear-gradient);}.cls-2{fill:url(#linear-gradient-2);}.cls-3{fill:url(#Orange_Yellow);}.cls-4{fill:url(#linear-gradient-3);}</style><linearGradient id="linear-gradient" x1="219.39" y1="145.92" x2="97.3" y2="75.43" gradientUnits="userSpaceOnUse"><stop offset="0" stop-color="#e5352b"/><stop offset="0.11" stop-color="#ea652d"/><stop offset="0.19" stop-color="#eb712e"/><stop offset="0.33" stop-color="#f1942e"/><stop offset="0.72" stop-color="#fccd00"/><stop offset="0.81" stop-color="#fcd103"/><stop offset="0.9" stop-color="#fddc0d"/><stop offset="0.99" stop-color="#ffef1c"/><stop offset="1" stop-color="#fff21f"/></linearGradient><linearGradient id="linear-gradient-2" x1="516.93" y1="154.82" x2="431.37" y2="303" gradientUnits="userSpaceOnUse"><stop offset="0.06" stop-color="#e5352b"/><stop offset="0.09" stop-color="#e7482c"/><stop offset="0.12" stop-color="#e9582c"/><stop offset="0.16" stop-color="#ea622d"/><stop offset="0.22" stop-color="#ea652d"/><stop offset="0.24" stop-color="#ea682d"/><stop offset="0.33" stop-color="#eb6f2e"/><stop offset="0.33" stop-color="#eb6f2e"/><stop offset="0.44" stop-color="#eb712e"/><stop offset="0.59" stop-color="#f1942e"/><stop offset="0.72" stop-color="#fccd00"/><stop offset="0.81" stop-color="#fcd103"/><stop offset="0.9" stop-color="#fddc0d"/><stop offset="0.99" stop-color="#ffef1c"/><stop offset="1" stop-color="#fff21f"/></linearGradient><linearGradient id="Orange_Yellow" x1="2.04" y1="317.08" x2="603" y2="317.08" gradientUnits="userSpaceOnUse"><stop offset="0" stop-color="#fff21f"/><stop offset="0.01" stop-color="#ffef1c"/><stop offset="0.1" stop-color="#fddc0d"/><stop offset="0.19" stop-color="#fcd103"/><stop offset="0.28" stop-color="#fccd00"/><stop offset="0.67" stop-color="#f1942e"/><stop offset="0.89" stop-color="#ea652d"/><stop offset="1" stop-color="#e5352b"/></linearGradient><linearGradient id="linear-gradient-3" x1="286.97" y1="523.88" x2="521.13" y2="373.65" gradientUnits="userSpaceOnUse"><stop offset="0" stop-color="#fff21f"/><stop offset="0.01" stop-color="#ffef1c"/><stop offset="0.1" stop-color="#fddc0d"/><stop offset="0.19" stop-color="#fcd103"/><stop offset="0.28" stop-color="#fccd00"/><stop offset="0.67" stop-color="#f1942e"/><stop offset="0.79" stop-color="#ef8a2e"/><stop offset="0.89" stop-color="#ea652d"/><stop offset="1" stop-color="#e5352b"/></linearGradient></defs><title>Asset 1</title><g id="Layer_2" data-name="Layer 2"><g id="initial"><path class="cls-1" d="M89.87,125.62C62.3,120.51,35.74,77.62,2,0,2,0-2.55,48.51,2,77.62s24.51,61.27,53.62,81.19c2.05,1.4,9.94,5.86,21.69,9.72,37.68,12.38,72.9,3.17,91.67-3.59,86.39-30.75,145.26-44.67,185.57-48.45-23.09,1.1-110.5,9.13-164.63,17.3S117.45,130.72,89.87,125.62Z"/><path class="cls-2" d="M543.32,218.55c21-30.77-17.54-67.05-76-87.56a96.29,96.29,0,0,1,11.51,6.42C500.49,151.6,511,169.64,511,192.57c0,34.3-15.15,63.19-46.33,88.3a141.68,141.68,0,0,1-35.82,20.67h0C478.25,288.36,514.72,260.43,543.32,218.55Z"/><path class="cls-3" d="M536.27,337.15c-13.23-7.07-29.83-12.76-49.54-17,34.13-12.28,60.89-28.24,79.78-47.63C590.72,247.68,603,219.6,603,189c0-32.72-18.33-60.64-54.48-83C506.7,80.2,467,75.35,395.22,73.38A841.18,841.18,0,0,0,244.09,83a272.42,272.42,0,0,1-55.92,8.42c-6.19.28-53.37,2-96.26-13.78A173.3,173.3,0,0,1,55.33,59.36a156.07,156.07,0,0,1-13.8-10.23C27.62,37.59,14.61,22.23,2,0,35.74,77.62,62.3,120.51,89.87,125.62s46,16.34,100.09,8.17,141.54-16.2,164.63-17.3c8.4-.79,16-1.14,22.86-1.11h.23q10.71,0,20.58.58h0c28.27,1.61,51.41,6.64,69.11,15,58.41,20.51,97,56.79,76,87.56-28.6,41.88-65.07,69.81-114.47,83h0c-26,10.57-58.12,16.3-96.11,17.1l26.6-90.11c5.69-18.37,14.93-43,27.47-73.3l5-12.09L379,145.69c-47.39,9.4-92.18,15.36-133.13,17.7l-5.1,34.91a70,70,0,0,1,9.86-.92c5.38,0,9.62,1.23,12.95,3.75,3.64,2.76,4.07,5,4.07,6.35,0,5-1.55,12.75-4.61,23.14L182.28,489.45C168.54,533,154,561.26,138.9,573.5s-41.07,19.19-77.6,20.89l-4.75.22L43,634.17l11.53-1.88c28.23-4.58,61.13-6.91,97.77-6.91,24.2,0,47.63.46,69.58,1.35,47.26,2.46,77.23,3.65,91.59,3.65a369.07,369.07,0,0,0,143.39-28.79c45.86-19.2,81.15-43.84,104.9-73.25C585.8,498.56,598,466.47,598,433c0-20.86-5.46-39.68-16.23-55.91C571.14,361,555.83,347.59,536.27,337.15Zm3,102.22C524.57,516.62,455.46,558.79,446.3,565c-34.73,23.49-144.93,30.41-145.49,24.39h0c-19.86,0-43.3-2.39-69.83-7.11a135.5,135.5,0,0,0,21.49-30.21c13.17-25.19,27-61.55,41.19-108l26.16-84.56c117.27-15.7,205-.16,220.44,42.11C544.3,412.68,542.36,422.87,539.23,439.37Z"/><path class="cls-4" d="M319.82,359.47c51.86.17,87.52,2.92,106,8.19s33.38,14.47,44.59,27.44S487,423,487,441c0,37.34-15.73,71.76-46.75,102.29s-78,46-139.44,46h0c.56,6,110.76-.9,145.49-24.39,9.16-6.2,78.27-48.37,92.93-125.62,3.13-16.5,5.07-26.69,1-37.79C524.84,359.31,437.09,343.77,319.82,359.47Z"/></g></g></svg>