<svg xmlns="http://www.w3.org/2000/svg" xmlns:xlink="http://www.w3.org/1999/xlink" viewBox="0 0 770.92 131.31"><defs><style>.cls-1,.cls-10,.cls-11,.cls-2,.cls-3,.cls-4,.cls-5,.cls-6,.cls-7,.cls-8,.cls-9{stroke:#f8b62d;stroke-miterlimit:10;stroke-width:8px;}.cls-1{fill:url(#Orange_Yellow);}.cls-2{fill:url(#Orange_Yellow-2);}.cls-3{fill:url(#Orange_Yellow-3);}.cls-4{fill:url(#Orange_Yellow-4);}.cls-5{fill:url(#Orange_Yellow-5);}.cls-6{fill:url(#Orange_Yellow-6);}.cls-7{fill:url(#Orange_Yellow-7);}.cls-8{fill:url(#Orange_Yellow-8);}.cls-9{fill:url(#Orange_Yellow-9);}.cls-10{fill:url(#Orange_Yellow-10);}.cls-11{fill:url(#Orange_Yellow-11);}.cls-12{fill:url(#linear-gradient);}.cls-13{fill:url(#linear-gradient-2);}.cls-14{fill:url(#Orange_Yellow-12);}.cls-15{fill:url(#linear-gradient-3);}</style><linearGradient id="Orange_Yellow" x1="137.13" y1="111.01" x2="186.87" y2="79.1" gradientUnits="userSpaceOnUse"><stop offset="0" stop-color="#fff21f"/><stop offset="0.01" stop-color="#ffef1c"/><stop offset="0.1" stop-color="#fddc0d"/><stop offset="0.19" stop-color="#fcd103"/><stop offset="0.28" stop-color="#fccd00"/><stop offset="0.67" stop-color="#f1942e"/><stop offset="0.89" stop-color="#ea652d"/><stop offset="1" stop-color="#e5352b"/></linearGradient><linearGradient id="Orange_Yellow-2" x1="192.68" y1="109.56" x2="242.09" y2="77.86" xlink:href="#Orange_Yellow"/><linearGradient id="Orange_Yellow-3" x1="246.62" y1="98.83" x2="286.72" y2="73.1" xlink:href="#Orange_Yellow"/><linearGradient id="Orange_Yellow-4" x1="313.98" y1="117.12" x2="379.17" y2="75.29" xlink:href="#Orange_Yellow"/><linearGradient id="Orange_Yellow-5" x1="401.49" y1="109.05" x2="457.64" y2="73.02" xlink:href="#Orange_Yellow"/><linearGradient id="Orange_Yellow-6" x1="472.24" y1="110.82" x2="544.36" y2="64.55" xlink:href="#Orange_Yellow"/><linearGradient id="Orange_Yellow-7" x1="529.43" y1="95.3" x2="570.38" y2="69.02" xlink:href="#Orange_Yellow"/><linearGradient id="Orange_Yellow-8" x1="567.3" y1="98.83" x2="607.39" y2="73.1" xlink:href="#Orange_Yellow"/><linearGradient id="Orange_Yellow-9" x1="598.4" y1="95.3" x2="639.36" y2="69.02" xlink:href="#Orange_Yellow"/><linearGradient id="Orange_Yellow-10" x1="642.17" y1="109.95" x2="695.16" y2="75.96" xlink:href="#Orange_Yellow"/><linearGradient id="Orange_Yellow-11" x1="709.64" y1="113.12" x2="765.93" y2="77" xlink:href="#Orange_Yellow"/><linearGradient id="linear-gradient" x1="45.43" y1="30.21" x2="20.15" y2="15.62" gradientUnits="userSpaceOnUse"><stop offset="0" stop-color="#e5352b"/><stop offset="0.11" stop-color="#ea652d"/><stop offset="0.19" stop-color="#eb712e"/><stop offset="0.33" stop-color="#f1942e"/><stop offset="0.72" stop-color="#fccd00"/><stop offset="0.81" stop-color="#fcd103"/><stop offset="0.9" stop-color="#fddc0d"/><stop offset="0.99" stop-color="#ffef1c"/><stop offset="1" stop-color="#fff21f"/></linearGradient><linearGradient id="linear-gradient-2" x1="107.04" y1="32.06" x2="89.32" y2="62.74" gradientUnits="userSpaceOnUse"><stop offset="0.06" stop-color="#e5352b"/><stop offset="0.09" stop-color="#e7482c"/><stop offset="0.12" stop-color="#e9582c"/><stop offset="0.16" stop-color="#ea622d"/><stop offset="0.22" stop-color="#ea652d"/><stop offset="0.24" stop-color="#ea682d"/><stop offset="0.33" stop-color="#eb6f2e"/><stop offset="0.33" stop-color="#eb6f2e"/><stop offset="0.44" stop-color="#eb712e"/><stop offset="0.59" stop-color="#f1942e"/><stop offset="0.72" stop-color="#fccd00"/><stop offset="0.81" stop-color="#fcd103"/><stop offset="0.9" stop-color="#fddc0d"/><stop offset="0.99" stop-color="#ffef1c"/><stop offset="1" stop-color="#fff21f"/></linearGradient><linearGradient id="Orange_Yellow-12" x1="0.42" y1="65.66" x2="124.86" y2="65.66" xlink:href="#Orange_Yellow"/><linearGradient id="linear-gradient-3" x1="59.42" y1="108.47" x2="107.9" y2="77.37" gradientUnits="userSpaceOnUse"><stop offset="0" stop-color="#fff21f"/><stop offset="0.01" stop-color="#ffef1c"/><stop offset="0.1" stop-color="#fddc0d"/><stop offset="0.19" stop-color="#fcd103"/><stop offset="0.28" stop-color="#fccd00"/><stop offset="0.67" stop-color="#f1942e"/><stop offset="0.79" stop-color="#ef8a2e"/><stop offset="0.89" stop-color="#ea652d"/><stop offset="1" stop-color="#e5352b"/></linearGradient></defs><title>mobile_header</title><g id="Layer_2" data-name="Layer 2"><g id="Layer_3" data-name="Layer 3"><path class="cls-1" d="M138.42,93c0,17.13,10.89,25.69,24.83,25.69,10.15,0,15-2,18.83-3.67l1.59,4.77c-2.08,1-8.68,4-21,4-18.23,0-30.09-12.35-30.09-29.35,0-19.93,12.72-32.29,29.35-32.29,21.77,0,25.56,19.33,25.56,27.15a14.86,14.86,0,0,1-.24,3.67Zm42.81-4.77c.12-6.11-2.45-21.15-20.06-21.15-14.92,0-21.16,12.23-22.38,21.15Z"/><path class="cls-2" d="M201.28,114.41a28.58,28.58,0,0,0,14.68,4.4c10.27,0,14.8-5.38,14.8-11.38,0-6.84-4.65-10.15-13.82-13.08C206.3,90.92,201,85.42,201,78.45c0-8.32,6.6-16.27,19.32-16.27a25.6,25.6,0,0,1,14.19,3.92L232.22,71a22.33,22.33,0,0,0-13-3.79c-8.07,0-12.35,4.89-12.35,10.52,0,6.6,5,9.17,13.7,12.1,10.76,3.67,16,8.32,16,17.12,0,9.54-7.83,16.88-21.16,16.88a32.88,32.88,0,0,1-16.39-4.28Z"/><path class="cls-3" d="M262.07,46.16V63.65h18.59v4.77H262.07V106c0,7.21,2.2,12.72,9.41,12.72a22.92,22.92,0,0,0,7.71-1.1l.73,4.64a24,24,0,0,1-9.05,1.59c-4.65,0-8.44-1.47-10.88-4.4-2.94-3.3-3.92-8.68-3.92-14.19V68.42H245.31V63.65h10.76V48Z"/><path class="cls-4" d="M335,93.37l-11.38,29h-6.23l33.26-82.42h5.87l33,82.42h-6.24l-11.61-29Zm34.73-5-11.62-29c-2.2-5.5-3.3-9-4.52-13.09h-.25c-1.22,4.16-2.57,7.83-4.52,12.72L337,88.36Z"/><path class="cls-5" d="M451.63,108.17c0,4.77.13,9.42.49,14.18H446.5l-.37-11.86h-.24A25.46,25.46,0,0,1,423,123.82c-6.73,0-22.14-2.32-22.14-27.27V63.65h6V95.33c0,13.69,4.77,23.23,17.74,23.23a21.88,21.88,0,0,0,19.56-12.47,18.76,18.76,0,0,0,1.47-6.85V63.65h6Z"/><path class="cls-6" d="M525.26,34.79v73.38c0,4.77.12,9.42.49,14.18h-5.51l-.36-12.22h-.25c-3.42,7.33-11.49,13.69-23.72,13.69-16.51,0-28.25-13.21-28.25-29.47-.13-19.08,13.08-32.17,29.59-32.17,12.23,0,19.2,6.49,21.77,11.26h.25V34.79Zm-6,52.47a23.08,23.08,0,0,0-.74-5.75c-2.57-8-10.15-14.43-21.16-14.43-13.94,0-23.72,10.64-23.72,26.53,0,13.21,7.7,25.32,23.6,25.32a22.08,22.08,0,0,0,21.28-16.14,16.79,16.79,0,0,0,.74-5.14Z"/><path class="cls-7" d="M554.73,46.28a5.1,5.1,0,0,1-5.13,5.26c-2.81,0-4.77-2.56-4.77-5.26a5.24,5.24,0,0,1,5-5.25A5.06,5.06,0,0,1,554.73,46.28Zm-7.94,76.07V63.65h6v58.7Z"/><path class="cls-8" d="M582.74,46.16V63.65h18.59v4.77H582.74V106c0,7.21,2.2,12.72,9.42,12.72a22.9,22.9,0,0,0,7.7-1.1l.74,4.64a24,24,0,0,1-9.05,1.59c-4.65,0-8.44-1.47-10.89-4.4-2.93-3.3-3.91-8.68-3.91-14.19V68.42H566V63.65h10.76V48Z"/><path class="cls-9" d="M623.71,46.28a5.11,5.11,0,0,1-5.14,5.26c-2.81,0-4.76-2.56-4.76-5.26a5.24,5.24,0,0,1,5-5.25A5.06,5.06,0,0,1,623.71,46.28Zm-8,76.07V63.65h6v58.7Z"/><path class="cls-10" d="M699.54,92.27c0,22-17.13,31.55-31.56,31.55-17.49,0-30.21-12.84-30.21-30.21,0-19.56,14.68-31.43,31.07-31.43C687.67,62.18,699.54,75.51,699.54,92.27Zm-55.77,1c0,16.39,11.86,25.68,24.58,25.68,13,0,25.19-9.42,25.19-26.29,0-11.13-7.46-25.56-24.7-25.56C652.21,67.08,643.77,79.55,643.77,93.25Z"/><path class="cls-11" d="M715.56,77.84c0-4.77-.12-9.42-.49-14.19h5.62l.49,11.74h.25c3.55-7.21,11.86-13.21,22.62-13.21,5.39,0,22.87,2.45,22.87,26.79v33.38h-6V89c0-11.5-5-21.65-18.47-21.65a21.63,21.63,0,0,0-19.93,13.94,16.81,16.81,0,0,0-1,5.26v35.83h-6Z"/><path class="cls-12" d="M18.61,26C12.9,25,7.4,16.07.42,0c0,0-.95,10,0,16.07S5.5,28.76,11.52,32.88a20.56,20.56,0,0,0,4.5,2c7.8,2.56,15.09.65,19-.75,17.88-6.36,30.08-9.25,38.42-10-4.78.23-22.88,1.89-34.09,3.58S24.32,27.07,18.61,26Z"/><path class="cls-13" d="M112.5,45.25c4.35-6.37-3.63-13.88-15.73-18.13a20.88,20.88,0,0,1,2.39,1.33c4.47,2.94,6.65,6.68,6.65,11.42,0,7.11-3.14,13.09-9.6,18.29a29.31,29.31,0,0,1-7.41,4.28h0C99,59.71,106.58,53.92,112.5,45.25Z"/><path class="cls-14" d="M111,69.81a39.84,39.84,0,0,0-10.26-3.52c7.07-2.54,12.61-5.85,16.52-9.86,5-5.14,7.56-11,7.56-17.29,0-6.77-3.8-12.55-11.28-17.18-8.66-5.35-16.89-6.36-31.75-6.77a174.63,174.63,0,0,0-31.29,2A56.31,56.31,0,0,1,39,18.93c-1.28.05-11,.42-19.93-2.86a36,36,0,0,1-7.57-3.78A30.86,30.86,0,0,1,8.6,10.17,35.44,35.44,0,0,1,.42,0c7,16.07,12.48,25,18.19,26s9.51,3.38,20.72,1.69,29.31-3.35,34.09-3.58c1.74-.16,3.31-.24,4.74-.23h0q2.22,0,4.26.12h0c5.86.33,10.65,1.38,14.31,3.11,12.1,4.25,20.08,11.76,15.73,18.13C106.58,53.92,99,59.71,88.8,62.44h0c-5.38,2.19-12,3.37-19.9,3.54l5.51-18.66c1.17-3.8,3.09-8.91,5.68-15.18l1-2.5-2.66.53a202.63,202.63,0,0,1-27.56,3.66l-1.06,7.23a14,14,0,0,1,2-.19,4.23,4.23,0,0,1,2.68.78c.76.57.84,1,.84,1.31a19.25,19.25,0,0,1-.95,4.79L37.74,101.34c-2.84,9-5.86,14.87-9,17.41s-8.5,4-16.07,4.32l-1,.05L8.9,131.31l2.39-.39a127.85,127.85,0,0,1,20.24-1.43c5,0,9.86.1,14.41.28,9.78.51,16,.76,19,.76a76.36,76.36,0,0,0,29.69-6c9.5-4,16.81-9.07,21.72-15.16s7.51-12.81,7.51-19.75a20.56,20.56,0,0,0-3.36-11.58A25.37,25.37,0,0,0,111,69.81ZM111.65,91c-3,16-17.34,24.72-19.24,26-7.19,4.86-30,6.29-30.12,5.05h0a84,84,0,0,1-14.46-1.48,28.17,28.17,0,0,0,4.45-6.25c2.72-5.22,5.59-12.75,8.52-22.37l5.42-17.51c24.28-3.25,42.45,0,45.64,8.72C112.7,85.45,112.3,87.56,111.65,91Z"/><path class="cls-15" d="M66.22,74.43c10.74,0,18.12.61,22,1.7a18.63,18.63,0,0,1,9.23,5.68,13.92,13.92,0,0,1,3.43,9.51c0,7.73-3.26,14.86-9.68,21.18S75,122,62.29,122h0c.11,1.24,22.93-.19,30.12-5.05,1.9-1.29,16.21-10,19.24-26,.65-3.42,1-5.53.21-7.83C108.67,74.4,90.5,71.18,66.22,74.43Z"/></g></g></svg>