<svg width="170" height="16" fill="none" xmlns="http://www.w3.org/2000/svg"><path d="M37.587 1.28h-5.662v12.309c0 .52.212 1.018.588 1.385.377.367.888.574 1.42.574h3.527c5.274 0 8.353-3.063 8.353-7.183 0-4.12-2.985-7.086-8.226-7.086zm.067 10.787h-1.653V4.753h1.653c2.43 0 4.016 1.372 4.016 3.657 0 2.286-1.586 3.657-4.016 3.657zM82.872.999a7.75 7.75 0 00-4.165 1.372 7.466 7.466 0 00-2.695 3.388 7.268 7.268 0 00-.33 4.277 7.392 7.392 0 002.145 3.744 7.69 7.69 0 003.907 1.965 7.799 7.799 0 004.37-.466 7.583 7.583 0 003.38-2.742 7.31 7.31 0 001.265-4.107 7.333 7.333 0 00-.62-2.894 7.49 7.49 0 00-1.72-2.435 7.703 7.703 0 00-2.552-1.595A7.848 7.848 0 0082.872 1zm0 11.297a3.896 3.896 0 01-1.474-.316 3.817 3.817 0 01-1.234-.848 3.71 3.71 0 01-.8-1.249 3.642 3.642 0 01-.24-1.453 3.577 3.577 0 01.22-1.453c.173-.464.44-.89.788-1.25.346-.361.764-.65 1.228-.848a3.827 3.827 0 011.472-.308 3.89 3.89 0 011.48.307c.466.198.888.485 1.24.845.35.36.625.785.805 1.25.18.465.262.96.243 1.457.028.496-.048.992-.222 1.458a3.649 3.649 0 01-.793 1.255c-.348.361-.769.65-1.235.848-.467.198-.97.302-1.478.305zM142.091 6.203a4.48 4.48 0 00-.291-1.825 4.56 4.56 0 00-1.008-1.564c-.984-.96-2.536-1.535-4.772-1.535h-6.934v12.61c0 .526.214 1.03.595 1.402.381.371.898.58 1.437.58.538 0 1.055-.209 1.436-.58.381-.372.595-.876.595-1.402v-2.612h1.78l2.952 4.33h4.685l-3.487-5.022a4.623 4.623 0 002.228-1.718c.54-.786.814-1.718.784-2.664zm-6.258 1.96h-2.677V4.707h2.677c1.338 0 2.202.574 2.202 1.698 0 1.123-.824 1.743-2.202 1.743v.013zM154.305 4.656c.44-.027.854-.217 1.156-.53a1.67 1.67 0 00.47-1.159c0-.43-.168-.844-.47-1.158a1.753 1.753 0 00-1.156-.53h-10.166v12.31c0 .52.211 1.018.588 1.385.376.367.887.574 1.419.574h9.852v-3.37h-7.837V9.932h7.034V6.804h-7.034V4.642l6.144.014zM27.468.999c-.547 0-1.071.212-1.458.589a1.987 1.987 0 00-.604 1.422V9.33c0 2.005-1.07 2.945-2.677 2.945-1.606 0-2.677-.986-2.677-3.05V1.28h-4.19v8.033c0 4.473 2.617 6.53 6.787 6.53s6.867-2.025 6.867-6.641V3.01c0-.531-.216-1.04-.6-1.418A2.087 2.087 0 0027.469 1zM50.076.999a2.052 2.052 0 00-.786.142c-.25.099-.477.245-.667.431a1.917 1.917 0 00-.588 1.418v12.59h4.083V2.99a1.917 1.917 0 00-.147-.767 1.957 1.957 0 00-.441-.65 2.013 2.013 0 00-.667-.432A2.052 2.052 0 0050.076 1zM70.744.999a2.052 2.052 0 00-.786.142c-.25.099-.477.245-.667.431a1.916 1.916 0 00-.588 1.418v12.59h4.082V2.99a1.916 1.916 0 00-.146-.767 1.956 1.956 0 00-.441-.65 2.012 2.012 0 00-.667-.432A2.052 2.052 0 0070.744 1zM104.691.999c-.533 0-1.044.206-1.42.573a1.933 1.933 0 00-.588 1.386v5.877l-6.024-7.562h-3.828v14.301h4.016V7.738l6.264 7.836h3.554V2.958c0-.514-.207-1.008-.576-1.374a2.034 2.034 0 00-1.398-.585zM162.122 9.932h7.041V6.804h-7.041V4.642h6.151c.44-.026.854-.216 1.156-.53a1.67 1.67 0 00.47-1.158c0-.43-.168-.844-.47-1.158a1.753 1.753 0 00-1.156-.53h-10.166V13.59c0 .26.053.517.156.757.103.24.254.457.444.64.19.182.415.326.662.422.248.097.513.144.779.14H170v-3.37h-7.878V9.932zM125.981 1.28h-11.525v3.473h4.397v10.828h4.096V4.753h3.065c.472 0 .925-.183 1.259-.508.334-.326.521-.768.521-1.229 0-.46-.187-.902-.521-1.228a1.804 1.804 0 00-1.259-.509h-.033zM65.51 1.28H54.012v3.473h4.397v10.828h4.063V4.753h3.065c.472 0 .925-.183 1.259-.508.334-.326.521-.768.521-1.229 0-.46-.187-.902-.521-1.228a1.803 1.803 0 00-1.259-.509h-.027zM9.323 1.28H5.341L.14 13.196c-.092.229-.14.473-.141.718.017.446.189.872.488 1.21a2.02 2.02 0 001.155.645c.45.08.913.009 1.315-.202.403-.211.719-.55.897-.96l.67-1.594h5.615l.67 1.594c.175.413.491.756.895.97.403.214.87.287 1.322.206a2.02 2.02 0 001.16-.65c.3-.34.47-.77.484-1.219a1.963 1.963 0 00-.147-.718l-5.2-11.918zM7.315 9.944H5.682l1.633-4.068 1.633 4.068H7.315z" fill="#75B060"/></svg>